#!OML:ASF I:\Actors\actors\Patient Classification 1\Patient 1\Session 1\Subject1.ASF
:FULLY-SPECIFIED
:DEGREES
571
root 0.709396 17.4677 9.13444 9.15211 -0.81646 -8.95947
lowerback -2.41098 2.39079 5.61
upperback -9.08729 3.53041 2.69986
thorax -8.05694 1.46244 -0.435581
lowerneck -7.64949 -5.84454 -2.05721
upperneck 34.9418 -9.24079 2.75048
head 13.2287 -4.01507 0.203877
rclavicle -7.57867e-016 1.14301e-015
rhumerus 14.02 35.4563 -82.3637
rradius 117.045
rwrist 27.1209
rhand -18.7994 -30.8346
rfingers 7.12502
rthumb 7.49878 299.318
lclavicle -7.57867e-016 1.14301e-015
lhumerus 16.2045 -25.0992 82.0504
lradius 125.64
lwrist -6.48143
lhand -21.0954 -32.4914
lfingers 7.12502
lthumb 5.28219 -2.57723
rfemur -4.39285 21.159 24.8559
rtibia 4.14365
rfoot -14.3947 -21.9146
rtoes 2.08009
lfemur 9.57385 -53.6642 -15.0017
ltibia -4.617
lfoot -37.3208 57.6075
ltoes 18.753
572
root 0.711993 17.4712 9.12379 9.27193 -0.673437 -8.95697
lowerback -2.31879 2.22374 5.61152
upperback -9.04677 3.32682 2.93239
thorax -8.09074 1.37115 -0.186978
lowerneck -7.76322 -5.70102 -2.38762
upperneck 35.2504 -8.98782 2.7761
head 13.401 -3.93325 0.297437
rclavicle 2.34698e-016 1.55658e-014
rhumerus 14.6375 36.0734 -82.0461
rradius 117.275
rwrist 26.972
rhand -19.0476 -30.8729
rfingers 7.12502
rthumb 7.25917 299.272
lclavicle 2.34698e-016 1.55658e-014
lhumerus 15.9564 -24.5939 82.1341
lradius 125.735
lwrist -6.40607
lhand -21.1964 -32.7697
lfingers 7.12502
lthumb 5.18471 -2.8531
rfemur -4.50657 21.3803 24.8064
rtibia 4.03091
rfoot -14.4055 -22.2479
rtoes 2.51418
lfemur 9.12914 -53.6536 -14.6307
ltibia -4.59692
lfoot -37.0389 57.5418
ltoes 18.5727
573
root 0.713786 17.4745 9.11367 9.40257 -0.533512 -8.95598
lowerback -2.23071 2.14664 5.67311
upperback -9.01974 3.2394 3.05823
thorax -8.12182 1.3284 -0.0879346
lowerneck -7.60388 -5.64499 -2.45453
upperneck 35.1154 -8.82145 2.61002
head 13.2934 -3.89555 0.274745
rclavicle 1.0051e-014 1.26228e-014
rhumerus 15.1293 36.4313 -81.755
rradius 117.469
rwrist 26.9505
rhand -18.7572 -31.1813
rfingers 7.12502
rthumb 7.53946 298.973
lclavicle 1.0051e-014 1.26228e-014
lhumerus 15.8601 -24.342 82.1973
lradius 125.77
lwrist -6.34322
lhand -21.2225 -32.9768
lfingers 7.12502
lthumb 5.15951 -3.05957
rfemur -4.639 21.5497 24.7524
rtibia 3.93541
rfoot -14.4209 -22.5523
rtoes 2.89378
lfemur 8.74038 -53.7698 -14.3074
ltibia -4.57782
lfoot -36.8965 57.5584
ltoes 18.4578
574
root 0.714884 17.4766 9.10557 9.51585 -0.392803 -8.93713
lowerback -2.14701 2.11229 5.72339
upperback -9.00022 3.20479 3.11216
thorax -8.15214 1.30947 -0.0603592
lowerneck -7.46242 -5.61744 -2.43386
upperneck 35.0075 -8.76345 2.57357
head 13.2097 -3.87606 0.271738
rclavicle 4.64659e-015 6.24184e-014
rhumerus 15.5523 36.6145 -81.5045
rradius 117.646
rwrist 26.98
rhand -18.3967 -31.3815
rfingers 7.12502
rthumb 7.88749 298.786
lclavicle 4.64659e-015 6.24184e-014
lhumerus 15.7916 -24.2642 82.2487
lradius 125.795
lwrist -6.26188
lhand -21.0104 -33.0639
lfingers 7.12502
lthumb 5.36432 -3.15177
rfemur -4.7247 21.6582 24.6889
rtibia 3.81209
rfoot -14.4009 -22.8022
rtoes 2.94683
lfemur 8.44918 -53.992 -14.0908
ltibia -4.55857
lfoot -36.9221 57.6456
ltoes 18.4273
575
root 0.715356 17.4784 9.09677 9.6154 -0.255486 -8.90355
lowerback -2.05062 2.14214 5.7836
upperback -8.97009 3.25619 3.14593
thorax -8.17303 1.33197 -0.0636733
lowerneck -7.51958 -5.65229 -2.6624
upperneck 35.0621 -8.83925 2.78236
head 13.2748 -3.90827 0.378873
rclavicle 6.34869e-015 6.2816e-014
rhumerus 15.9535 36.5945 -81.1277
rradius 117.84
rwrist 27.0447
rhand -18.2211 -31.5015
rfingers 7.12502
rthumb 8.05695 298.672
lclavicle 6.34869e-015 6.2816e-014
lhumerus 15.796 -24.3554 82.3961
lradius 125.808
lwrist -6.20614
lhand -20.9948 -33.052
lfingers 7.12502
lthumb 5.37938 -3.1403
rfemur -4.80185 21.7644 24.6156
rtibia 3.69594
rfoot -14.3617 -23.0465
rtoes 2.84901
lfemur 8.22373 -54.2714 -13.9333
ltibia -4.5742
lfoot -37.0319 57.7791
ltoes 18.4547
576
root 0.716226 17.4802 9.08704 9.7118 -0.12006 -8.86849
lowerback -1.93174 2.1981 5.88256
upperback -8.95952 3.34459 3.13838
thorax -8.22287 1.36714 -0.134637
lowerneck -7.67135 -5.73203 -2.95498
upperneck 35.2718 -9.01265 3.0881
head 13.4442 -3.97405 0.516597
rclavicle -7.1811e-015 -1.91827e-014
rhumerus 16.2635 36.4363 -80.8206
rradius 117.99
rwrist 27.1079
rhand -18.0368 -31.6053
rfingers 7.12502
rthumb 8.23481 298.575
lclavicle -7.1811e-015 -1.91827e-014
lhumerus 15.8464 -24.5436 82.5613
lradius 125.779
lwrist -6.30336
lhand -21.2668 -32.8358
lfingers 7.12502
lthumb 5.11675 -2.91755
rfemur -4.87851 21.8803 24.541
rtibia 3.58434
rfoot -14.3257 -23.2953
rtoes 2.87655
lfemur 8.16631 -54.8084 -13.9179
ltibia -4.62736
lfoot -37.6387 58.0709
ltoes 18.8319
577
root 0.716557 17.4821 9.07732 9.81787 -0.0162062 -8.88661
lowerback -1.2707 2.20613 6.14088
upperback -9.39473 3.44584 2.98748
thorax -9.07272 1.36248 -0.470436
lowerneck -7.15561 -5.73977 -2.61444
upperneck 35.4284 -9.03793 2.87246
head 13.37 -3.97615 0.389025
rclavicle 2.17421e-015 4.63168e-014
rhumerus 15.6447 36.3603 -81.3988
rradius 118.121
rwrist 27.1853
rhand -17.9539 -31.6171
rfingers 7.12502
rthumb 8.31485 298.567
lclavicle 2.17421e-015 4.63168e-014
lhumerus 15.1183 -24.8369 82.7307
lradius 125.786
lwrist -6.42813
lhand -21.3595 -32.6528
lfingers 7.12502
lthumb 5.02726 -2.73244
rfemur -4.97729 22.0219 24.5168
rtibia 3.49448
rfoot -14.3305 -23.4964
rtoes 2.90232
lfemur 8.14321 -55.4374 -13.8812
ltibia -4.6527
lfoot -38.4513 58.4482
ltoes 19.2221
578
root 0.715895 17.4837 9.06826 9.90893 0.0304227 -8.95004
lowerback -1.23699 2.13897 6.17951
upperback -9.38527 3.36493 3.06163
thorax -9.08979 1.32265 -0.40957
lowerneck -7.10712 -5.65081 -2.35953
upperneck 35.4338 -8.88108 2.64969
head 13.327 -3.90304 0.282377
rclavicle 1.17034e-014 8.84592e-015
rhumerus 15.9771 36.4964 -81.3496
rradius 118.168
rwrist 27.1389
rhand -17.9345 -31.5922
rfingers 7.12502
rthumb 8.33358 298.592
lclavicle 1.17034e-014 8.84592e-015
lhumerus 15.1001 -24.6558 82.6386
lradius 125.747
lwrist -6.38425
lhand -21.086 -32.621
lfingers 7.12502
lthumb 5.2913 -2.70703
rfemur -5.06248 22.1254 24.5497
rtibia 3.41679
rfoot -14.3553 -23.5857
rtoes 2.98481
lfemur 8.04625 -55.84 -13.7442
ltibia -4.61562
lfoot -39.0862 58.643
ltoes 19.5586
579
root 0.716498 17.4851 9.061 9.94272 0.0719286 -8.94805
lowerback -1.57161 2.09232 6.08769
upperback -9.07809 3.25585 3.20904
thorax -8.56692 1.30066 -0.182922
lowerneck -7.45095 -5.58127 -2.41459
upperneck 35.3945 -8.78272 2.71733
head 13.3873 -3.85101 0.319561
rclavicle -1.61264e-014 4.08502e-014
rhumerus 16.7862 36.5886 -80.8304
rradius 118.165
rwrist 27.0864
rhand -17.9655 -31.5663
rfingers 7.12502
rthumb 8.30365 298.617
lclavicle -1.61264e-014 4.08502e-014
lhumerus 15.5679 -24.3672 82.5192
lradius 125.654
lwrist -6.23686
lhand -20.7911 -32.6756
lfingers 7.12502
lthumb 5.57601 -2.76895
rfemur -5.04854 22.1747 24.5365
rtibia 3.29477
rfoot -14.3508 -23.648
rtoes 3.23437
lfemur 7.94272 -55.9527 -13.683
ltibia -4.56265
lfoot -39.3093 58.6202
ltoes 19.6491
580
root 0.716472 17.4866 9.05462 9.95017 0.124084 -8.87636
lowerback -1.6607 2.14922 6.06045
upperback -8.92977 3.31474 3.23388
thorax -8.34952 1.34048 -0.140683
lowerneck -7.72605 -5.62604 -2.61399
upperneck 35.4851 -8.86702 2.88666
head 13.5129 -3.8829 0.397398
rclavicle -3.47873e-016 -4.96962e-015
rhumerus 17.1514 36.4421 -80.4457
rradius 118.178
rwrist 27.0478
rhand -18.0082 -31.5931
rfingers 7.12502
rthumb 8.26242 298.589
lclavicle -3.47873e-016 -4.96962e-015
lhumerus 15.8015 -24.425 82.6264
lradius 125.554
lwrist -6.18876
lhand -20.7367 -32.6937
lfingers 7.12502
lthumb 5.62853 -2.78845
rfemur -5.00244 22.2894 24.4587
rtibia 3.16941
rfoot -14.3392 -23.8221
rtoes 3.45498
lfemur 7.78281 -55.857 -13.6282
ltibia -4.54452
lfoot -39.1198 58.4881
ltoes 19.5293
